<?xml version="1.0" encoding="UTF-8"?>
<svg xmlns="http://www.w3.org/2000/svg" width="340.41" height="230" viewBox="0 0 340.41 230">
  <defs>
    <style>
      .cls-1 {
        fill: #ec008c;
      }

      .cls-1, .cls-2 {
        mix-blend-mode: multiply;
      }

      .cls-2 {
        fill: #00aeef;
      }

      .cls-3 {
        isolation: isolate;
      }
    </style>
  </defs>
  <g class="cls-3">
    <g id="Layer_1" data-name="Layer 1">
      <path class="cls-2" d="m53.48,27.03h13.04l31.14,71.58h-17.79l-6.17-15.17h-27.8l-5.97,15.17h-17.39L53.48,27.03Zm6.07,20.83l-8.7,22.24h17.49l-8.8-22.24Z"/>
      <path class="cls-2" d="m178.55,40.98h-20.42v-13.95h56.62v13.95h-20.42v57.63h-15.77v-57.63Z"/>
      <path class="cls-2" d="m99.09,27.03h27.7c3.64,0,7.09.35,10.36,1.06,3.27.71,6.13,1.89,8.59,3.54,2.46,1.65,4.41,3.88,5.86,6.67,1.45,2.8,2.17,6.29,2.17,10.46,0,5.06-1.31,9.35-3.94,12.89s-6.47,5.78-11.53,6.72l18.2,30.23h-18.91l-14.96-28.61h-7.79v28.61h-15.77V27.03Zm15.77,29.62h9.3c1.42,0,2.91-.05,4.5-.15,1.58-.1,3.02-.4,4.3-.91,1.28-.51,2.34-1.3,3.19-2.38.84-1.08,1.26-2.59,1.26-4.55,0-1.82-.37-3.27-1.11-4.35-.74-1.08-1.69-1.9-2.83-2.48-1.15-.57-2.46-.96-3.94-1.16-1.48-.2-2.93-.3-4.35-.3h-10.31v16.28Z"/>
      <path class="cls-1" d="m13.39,86.83h17.19l11.42,45.9h.2l14.96-45.9h14.66l14.86,47.12h.2l12.03-47.12h15.97l-20.93,71.58h-14.05l-15.77-49.54h-.2l-15.77,49.54h-13.55L13.39,86.83Z"/>
      <path class="cls-1" d="m112.07,122.62c0-5.73.96-10.92,2.88-15.57s4.6-8.61,8.04-11.88c3.44-3.27,7.51-5.78,12.23-7.53,4.72-1.75,9.87-2.63,15.47-2.63s10.75.88,15.47,2.63c4.72,1.75,8.8,4.26,12.23,7.53,3.44,3.27,6.12,7.23,8.04,11.88s2.88,9.84,2.88,15.57-.96,10.92-2.88,15.57-4.6,8.61-8.04,11.88c-3.44,3.27-7.52,5.78-12.23,7.53-4.72,1.75-9.88,2.63-15.47,2.63s-10.75-.88-15.47-2.63c-4.72-1.75-8.8-4.26-12.23-7.53-3.44-3.27-6.12-7.23-8.04-11.88s-2.88-9.84-2.88-15.57Zm16.38,0c0,3.37.52,6.46,1.57,9.25,1.04,2.8,2.54,5.22,4.5,7.28,1.95,2.06,4.3,3.66,7.03,4.8,2.73,1.15,5.78,1.72,9.15,1.72s6.42-.57,9.15-1.72c2.73-1.15,5.07-2.75,7.03-4.8,1.95-2.06,3.45-4.48,4.5-7.28,1.04-2.8,1.57-5.88,1.57-9.25s-.52-6.37-1.57-9.2c-1.05-2.83-2.54-5.27-4.5-7.33-1.96-2.06-4.3-3.66-7.03-4.8-2.73-1.15-5.78-1.72-9.15-1.72s-6.42.57-9.15,1.72c-2.73,1.15-5.07,2.75-7.03,4.8-1.96,2.06-3.46,4.5-4.5,7.33-1.05,2.83-1.57,5.9-1.57,9.2Z"/>
      <path class="cls-1" d="m193.97,86.83h27.7c3.64,0,7.09.35,10.36,1.06,3.27.71,6.13,1.89,8.59,3.54,2.46,1.65,4.41,3.88,5.86,6.67,1.45,2.8,2.17,6.29,2.17,10.46,0,5.06-1.31,9.35-3.94,12.89-2.63,3.54-6.47,5.78-11.53,6.72l18.2,30.23h-18.91l-14.96-28.61h-7.79v28.61h-15.77v-71.58Zm15.77,29.62h9.3c1.42,0,2.92-.05,4.5-.15,1.58-.1,3.02-.4,4.3-.91,1.28-.51,2.34-1.3,3.18-2.38.84-1.08,1.26-2.59,1.26-4.55,0-1.82-.37-3.27-1.11-4.35-.74-1.08-1.69-1.9-2.83-2.48-1.15-.57-2.46-.96-3.94-1.16-1.48-.2-2.93-.3-4.35-.3h-10.31v16.28Z"/>
      <path class="cls-1" d="m260.09,86.83h15.77v29.73l27.8-29.73h20.63l-31.85,33.26,34.58,38.32h-22.04l-29.12-33.97v33.97h-15.77v-71.58Z"/>
      <path class="cls-2" d="m6.94,93.03h17.19l11.42,45.9h.2l14.96-45.9h14.66l14.86,47.12h.2l12.03-47.12h15.97l-20.93,71.58h-14.05l-15.77-49.54h-.2l-15.77,49.54h-13.55L6.94,93.03Z"/>
      <path class="cls-2" d="m105.62,128.83c0-5.73.96-10.92,2.88-15.57s4.6-8.61,8.04-11.88c3.44-3.27,7.51-5.78,12.23-7.53,4.72-1.75,9.87-2.63,15.47-2.63s10.75.88,15.47,2.63c4.72,1.75,8.8,4.26,12.23,7.53,3.44,3.27,6.12,7.23,8.04,11.88s2.88,9.84,2.88,15.57-.96,10.92-2.88,15.57-4.6,8.61-8.04,11.88c-3.44,3.27-7.52,5.78-12.23,7.53-4.72,1.75-9.88,2.63-15.47,2.63s-10.75-.88-15.47-2.63c-4.72-1.75-8.8-4.26-12.23-7.53-3.44-3.27-6.12-7.23-8.04-11.88s-2.88-9.84-2.88-15.57Zm16.38,0c0,3.37.52,6.46,1.57,9.25,1.04,2.8,2.54,5.22,4.5,7.28,1.95,2.06,4.3,3.66,7.03,4.8,2.73,1.15,5.78,1.72,9.15,1.72s6.42-.57,9.15-1.72c2.73-1.15,5.07-2.75,7.03-4.8,1.95-2.06,3.45-4.48,4.5-7.28,1.04-2.8,1.57-5.88,1.57-9.25s-.52-6.37-1.57-9.2c-1.05-2.83-2.54-5.27-4.5-7.33-1.96-2.06-4.3-3.66-7.03-4.8-2.73-1.15-5.78-1.72-9.15-1.72s-6.42.57-9.15,1.72c-2.73,1.15-5.07,2.75-7.03,4.8-1.96,2.06-3.46,4.5-4.5,7.33-1.05,2.83-1.57,5.9-1.57,9.2Z"/>
      <path class="cls-2" d="m187.51,93.03h27.7c3.64,0,7.09.35,10.36,1.06,3.27.71,6.13,1.89,8.59,3.54,2.46,1.65,4.41,3.88,5.86,6.67,1.45,2.8,2.17,6.29,2.17,10.46,0,5.06-1.31,9.35-3.94,12.89-2.63,3.54-6.47,5.78-11.53,6.72l18.2,30.23h-18.91l-14.96-28.61h-7.79v28.61h-15.77v-71.58Zm15.77,29.62h9.3c1.42,0,2.92-.05,4.5-.15,1.58-.1,3.02-.4,4.3-.91,1.28-.51,2.34-1.3,3.18-2.38.84-1.08,1.26-2.59,1.26-4.55,0-1.82-.37-3.27-1.11-4.35-.74-1.08-1.69-1.9-2.83-2.48-1.15-.57-2.46-.96-3.94-1.16-1.48-.2-2.93-.3-4.35-.3h-10.31v16.28Z"/>
      <path class="cls-2" d="m253.64,93.03h15.77v29.73l27.8-29.73h20.63l-31.85,33.26,34.58,38.32h-22.04l-29.12-33.97v33.97h-15.77v-71.58Z"/>
      <path class="cls-1" d="m219.76,146.81h48.63v14.56h-32.86v13.35h31.04v14.56h-31.04v14.56h34.68v14.56h-50.45v-71.58Z"/>
      <path class="cls-1" d="m276.78,146.81h27.7c3.64,0,7.09.35,10.36,1.06,3.27.71,6.13,1.89,8.59,3.54,2.46,1.65,4.41,3.88,5.86,6.67,1.45,2.8,2.17,6.29,2.17,10.46,0,5.06-1.31,9.35-3.94,12.89-2.63,3.54-6.47,5.78-11.53,6.72l18.2,30.23h-18.91l-14.96-28.61h-7.79v28.61h-15.77v-71.58Zm15.77,29.62h9.3c1.42,0,2.92-.05,4.5-.15,1.58-.1,3.02-.4,4.3-.91,1.28-.51,2.34-1.3,3.18-2.38.84-1.08,1.26-2.59,1.26-4.55,0-1.82-.37-3.27-1.11-4.35-.74-1.08-1.69-1.9-2.83-2.48-1.15-.57-2.46-.96-3.94-1.16-1.48-.2-2.93-.3-4.35-.3h-10.31v16.28Z"/>
    </g>
  </g>
</svg>