<?xml version="1.0" encoding="UTF-8"?>
<svg xmlns="http://www.w3.org/2000/svg" width="123.15" height="172" viewBox="0 0 123.15 172">
  <defs>
    <style>
      .cls-1 {
        fill: #fff200;
      }

      .cls-2 {
        fill: #ec008c;
      }

      .cls-2, .cls-3 {
        mix-blend-mode: multiply;
      }

      .cls-3 {
        fill: #00aeef;
      }

      .cls-4 {
        isolation: isolate;
      }
    </style>
  </defs>
  <g class="cls-4">
    <g id="Layer_1" data-name="Layer 1">
      <path class="cls-1" d="m13.39,86.83h17.19l11.42,45.9h.2l14.96-45.9h14.66l14.86,47.12h.2l12.03-47.12h15.97l-20.93,71.58h-14.05l-15.77-49.54h-.2l-15.77,49.54h-13.55L13.39,86.83Z"/>
      <path class="cls-3" d="m53.48,27.03h13.04l31.14,71.58h-17.79l-6.17-15.17h-27.8l-5.97,15.17h-17.39L53.48,27.03Zm6.07,20.83l-8.7,22.24h17.49l-8.8-22.24Z"/>
      <path class="cls-2" d="m38.45,11.4h13.04l31.14,71.58h-17.79l-6.17-15.17h-27.8l-5.97,15.17H7.51L38.45,11.4Zm6.07,20.83l-8.7,22.24h17.49l-8.8-22.24Z"/>
      <path class="cls-3" d="m6.94,93.03h17.19l11.42,45.9h.2l14.96-45.9h14.66l14.86,47.12h.2l12.03-47.12h15.97l-20.93,71.58h-14.05l-15.77-49.54h-.2l-15.77,49.54h-13.55L6.94,93.03Z"/>
    </g>
  </g>
</svg>